<?xml version="1.0" encoding="UTF-8"?>
<svg xmlns="http://www.w3.org/2000/svg" width="256" height="256" viewBox="0 0 256 256">
  <defs>
    <radialGradient id="base" cx="35%" cy="30%" r="70%">
      <stop offset="0%" stop-color="#a39c95"/>
      <stop offset="55%" stop-color="#78716a"/>
      <stop offset="100%" stop-color="#423d39"/>
    </radialGradient>
    <radialGradient id="glow" cx="50%" cy="50%" r="70%">
      <stop offset="0%" stop-color="rgba(255,255,255,0.15)"/>
      <stop offset="100%" stop-color="rgba(255,255,255,0)"/>
    </radialGradient>
    <mask id="planetMask">
      <rect width="256" height="256" fill="black"/>
      <circle cx="128" cy="128" r="102.4" fill="white"/>
    </mask>
  </defs>
  <circle cx="128" cy="128" r="102.4" fill="url(#base)"/>
  <g mask="url(#planetMask)"><circle cx="73.26" cy="166.61" r="4.84" fill="rgba(0,0,0,0.18)"/><circle cx="71.91" cy="165.45" r="3.49" fill="rgba(255,255,255,0.08)"/><circle cx="162.05" cy="133.07" r="4.16" fill="rgba(0,0,0,0.18)"/><circle cx="160.88" cy="132.07" r="2.99" fill="rgba(255,255,255,0.08)"/><circle cx="69.71" cy="79.38" r="8.62" fill="rgba(0,0,0,0.18)"/><circle cx="67.30" cy="77.31" r="6.21" fill="rgba(255,255,255,0.08)"/><circle cx="114.99" cy="80.90" r="8.75" fill="rgba(0,0,0,0.18)"/><circle cx="112.54" cy="78.80" r="6.30" fill="rgba(255,255,255,0.08)"/><circle cx="61.29" cy="170.08" r="8.22" fill="rgba(0,0,0,0.18)"/><circle cx="58.99" cy="168.11" r="5.92" fill="rgba(255,255,255,0.08)"/><circle cx="156.66" cy="99.10" r="6.98" fill="rgba(0,0,0,0.18)"/><circle cx="154.71" cy="97.43" r="5.02" fill="rgba(255,255,255,0.08)"/><circle cx="92.40" cy="180.64" r="7.72" fill="rgba(0,0,0,0.18)"/><circle cx="90.23" cy="178.78" r="5.56" fill="rgba(255,255,255,0.08)"/><circle cx="93.76" cy="56.93" r="5.46" fill="rgba(0,0,0,0.18)"/><circle cx="92.23" cy="55.62" r="3.93" fill="rgba(255,255,255,0.08)"/></g>
  <circle cx="128" cy="128" r="102.4" fill="url(#glow)"/>
  <circle cx="128" cy="128" r="102.4" fill="none" stroke="rgba(255,255,255,0.14)" stroke-width="1"/>
</svg>